<svg xmlns="http://www.w3.org/2000/svg" width="86.635" height="77.432" viewBox="0 0 86.635 77.432">
  <g id="Component_20_3" data-name="Component 20 – 3" transform="translate(0.6 0.5)">
    <path id="Path_39" data-name="Path 39" d="M90.6,50.888H57A9.113,9.113,0,0,0,49.1,55.445l-16.8,29.1a9.113,9.113,0,0,0,0,9.113l16.8,29.1A9.113,9.113,0,0,0,57,127.32H90.6a9.113,9.113,0,0,0,7.892-4.556l16.8-29.1a9.113,9.113,0,0,0,0-9.113l-16.8-29.1A9.113,9.113,0,0,0,90.6,50.888" transform="translate(-31.081 -50.888)" fill="none" stroke="#4c5454" stroke-width="1"/>
    <path id="Icon_awesome-facebook-f" data-name="Icon awesome-facebook-f" d="M11.619,11.25l.555-3.62H8.7V5.282a1.81,1.81,0,0,1,2.041-1.955h1.579V.245A19.254,19.254,0,0,0,9.518,0c-2.86,0-4.73,1.734-4.73,4.872V7.63H1.609v3.62H4.789V20H8.7V11.25Z" transform="translate(35.753 28.216)" fill="#4c5454"/>
  </g>
</svg>
