<svg xmlns="http://www.w3.org/2000/svg" width="86.635" height="77.432" viewBox="0 0 86.635 77.432">
  <g id="Component_19_3" data-name="Component 19 – 3" transform="translate(0.6 0.5)">
    <path id="Path_38" data-name="Path 38" d="M90.6,50.888H57A9.113,9.113,0,0,0,49.1,55.445l-16.8,29.1a9.113,9.113,0,0,0,0,9.113l16.8,29.1A9.113,9.113,0,0,0,57,127.32H90.6a9.113,9.113,0,0,0,7.892-4.556l16.8-29.1a9.113,9.113,0,0,0,0-9.113l-16.8-29.1A9.113,9.113,0,0,0,90.6,50.888" transform="translate(-31.081 -50.888)" fill="none" stroke="#4c5454" stroke-width="1"/>
    <path id="Icon_awesome-linkedin-in" data-name="Icon awesome-linkedin-in" d="M4.477,20H.33V6.648H4.477ZM2.4,4.826A2.413,2.413,0,1,1,4.8,2.4,2.422,2.422,0,0,1,2.4,4.826ZM20,20H15.858V13.5c0-1.549-.031-3.536-2.156-3.536-2.156,0-2.486,1.683-2.486,3.424V20H7.074V6.648h3.977V8.469h.058a4.357,4.357,0,0,1,3.923-2.156c4.2,0,4.968,2.763,4.968,6.353V20Z" transform="translate(32.718 28.215)" fill="#4c5454"/>
  </g>
</svg>
