<?xml version="1.0" encoding="utf-8"?>
<!-- Generator: Adobe Illustrator 24.0.0, SVG Export Plug-In . SVG Version: 6.00 Build 0)  -->
<svg version="1.1" id="Component_6_62" xmlns="http://www.w3.org/2000/svg" xmlns:xlink="http://www.w3.org/1999/xlink" x="0px"
	 y="0px" viewBox="0 0 62 55.7" style="enable-background:new 0 0 62 55.7;" xml:space="preserve">
<style type="text/css">
	.st0{fill:#4C5454;stroke:#000333;stroke-width:2;stroke-miterlimit:10;}
	.st1{fill:#000333;}
</style>
<path id="Path_25" class="st0" d="M42.8,1H19.2c-2.3,0-4.4,1.2-5.5,3.2L1.9,24.6c-1.1,2-1.1,4.4,0,6.4l11.8,20.4
	c1.1,2,3.3,3.2,5.5,3.2h23.6c2.3,0,4.4-1.2,5.5-3.2L60.1,31c1.1-2,1.1-4.4,0-6.4L48.3,4.2C47.2,2.2,45.1,1,42.8,1"/>
<path id="Icon_ionic-ios-arrow-round-forward" class="st1" d="M34.5,20.3c-0.4,0.4-0.4,1.1,0,1.5l4.8,4.8H21c-0.6,0-1,0.5-1,1
	s0.5,1,1,1h18.3l-4.8,4.8c-0.4,0.4-0.4,1.1,0,1.5c0.4,0.4,1.1,0.4,1.4,0l6.5-6.6l0,0c0.1-0.1,0.2-0.2,0.2-0.3
	c0.1-0.1,0.1-0.3,0.1-0.4c0-0.3-0.1-0.5-0.3-0.7L36,20.3C35.6,19.9,35,19.9,34.5,20.3C34.5,20.3,34.5,20.3,34.5,20.3z"/>
</svg>
