<?xml version="1.0" encoding="utf-8"?>
<!-- Generator: Adobe Illustrator 24.0.0, SVG Export Plug-In . SVG Version: 6.00 Build 0)  -->
<svg version="1.1" id="Component_6_62" xmlns="http://www.w3.org/2000/svg" xmlns:xlink="http://www.w3.org/1999/xlink" x="0px"
	 y="0px" viewBox="0 0 62 55.7" style="enable-background:new 0 0 62 55.7;" xml:space="preserve">
<style type="text/css">
	.st0{fill:#4C5454;stroke:#000333;stroke-width:2;stroke-miterlimit:10;}
	.st1{fill:#000333;}
</style>
<path id="Path_25" class="st0" d="M19.2,54.7h23.6c2.3,0,4.4-1.2,5.5-3.2L60.1,31c1.1-2,1.1-4.4,0-6.4L48.3,4.2
	c-1.1-2-3.3-3.2-5.5-3.2H19.2c-2.3,0-4.4,1.2-5.5,3.2L1.9,24.6c-1.1,2-1.1,4.4,0,6.4l11.8,20.4C14.8,53.5,16.9,54.7,19.2,54.7"/>
<path id="Icon_ionic-ios-arrow-round-forward" class="st1" d="M27.5,35.4c0.4-0.4,0.4-1.1,0-1.5l-4.8-4.8H41c0.6,0,1-0.5,1-1
	c0-0.6-0.5-1-1-1H22.7l4.8-4.8c0.4-0.4,0.4-1.1,0-1.5c-0.4-0.4-1.1-0.4-1.4,0l-6.5,6.6l0,0c-0.1,0.1-0.2,0.2-0.2,0.3
	c-0.1,0.1-0.1,0.3-0.1,0.4c0,0.3,0.1,0.5,0.3,0.7l6.5,6.6C26.4,35.8,27,35.8,27.5,35.4C27.5,35.4,27.5,35.4,27.5,35.4z"/>
</svg>
