<?xml version="1.0" encoding="utf-8"?>
<!-- Generator: Adobe Illustrator 24.0.0, SVG Export Plug-In . SVG Version: 6.00 Build 0)  -->
<svg version="1.1" id="Layer_1" xmlns="http://www.w3.org/2000/svg" xmlns:xlink="http://www.w3.org/1999/xlink" x="0px" y="0px"
	 viewBox="0 0 61.1 54.7" style="enable-background:new 0 0 61.1 54.7;" xml:space="preserve">
<style type="text/css">
	.st0{fill:none;stroke:#707070;}
	.st1{fill:#707070;}
</style>
<path id="Path_25" class="st0" d="M42.4,0.5H18.8c-2.3,0-4.4,1.2-5.5,3.2L1.4,24.1c-1.1,2-1.1,4.4,0,6.4L13.2,51
	c1.1,2,3.3,3.2,5.5,3.2h23.6c2.3,0,4.4-1.2,5.5-3.2l11.8-20.4c1.1-2,1.1-4.4,0-6.4L47.9,3.7C46.8,1.7,44.7,0.5,42.4,0.5"/>
<path class="st1" d="M38.1,25.1c0,2.2-0.7,4.1-1.9,5.8l5.9,6c0.6,0.6,0.6,1.5,0,2.1s-1.5,0.6-2.1,0l-5.9-6c-1.6,1.2-3.6,1.9-5.8,1.9
	c-5.4,0-9.8-4.4-9.8-9.8s4.4-9.8,9.8-9.8S38.1,19.7,38.1,25.1z M28.3,31.8c3.7,0,6.8-3,6.8-6.8s-3-6.8-6.8-6.8s-6.8,3-6.8,6.8
	S24.6,31.8,28.3,31.8z"/>
</svg>
