<svg xmlns="http://www.w3.org/2000/svg" width="86.635" height="77.432" viewBox="0 0 86.635 77.432">
  <g id="Component_22_1" data-name="Component 22 – 1" transform="translate(0.6 0.5)">
    <path id="Path_41" data-name="Path 41" d="M90.6,50.888H57A9.113,9.113,0,0,0,49.1,55.445l-16.8,29.1a9.113,9.113,0,0,0,0,9.113l16.8,29.1A9.113,9.113,0,0,0,57,127.32H90.6a9.113,9.113,0,0,0,7.892-4.556l16.8-29.1a9.113,9.113,0,0,0,0-9.113l-16.8-29.1A9.113,9.113,0,0,0,90.6,50.888" transform="translate(-31.081 -50.888)" fill="none" stroke="#4c5454" stroke-width="1"/>
    <path id="Icon_awesome-twitter" data-name="Icon awesome-twitter" d="M22.094,8.365c.016.219.016.438.016.656A14.261,14.261,0,0,1,7.75,23.381,14.262,14.262,0,0,1,0,21.115a10.44,10.44,0,0,0,1.219.062,10.107,10.107,0,0,0,6.266-2.156,5.056,5.056,0,0,1-4.719-3.5,6.364,6.364,0,0,0,.953.078,5.338,5.338,0,0,0,1.328-.172A5.048,5.048,0,0,1,1,10.475v-.062a5.083,5.083,0,0,0,2.281.641A5.054,5.054,0,0,1,1.719,4.3,14.346,14.346,0,0,0,12.125,9.584,5.7,5.7,0,0,1,12,8.428a5.052,5.052,0,0,1,8.734-3.453,9.936,9.936,0,0,0,3.2-1.219,5.033,5.033,0,0,1-2.219,2.781,10.118,10.118,0,0,0,2.906-.781,10.849,10.849,0,0,1-2.531,2.609Z" transform="translate(30.406 24.835)" fill="#4c5454"/>
  </g>
</svg>
